<svg xmlns="http://www.w3.org/2000/svg" width="32" height="32" viewBox="0 0 32 32">
  <!-- Red paddle -->
  <path d="M6.4 6.4c-1.51-0.48-3.52-0.8-5.12-0.8-1.6 0-3.61.32-5.12.8-1.51.48-2.56 1.28-3.2 2.4-.64 1.12-.64 2.4 0 3.52.64 1.12 1.69 1.92 3.2 2.4 1.51.48 3.52.8 5.12.8 1.6 0 3.61-.32 5.12-.8 1.51-.48 2.56-1.28 3.2-2.4.64-1.12.64-2.4 0-3.52-.64-1.12-1.69-1.92-3.2-2.4z" fill="#E31618"/>

  <!-- Yellow paddle -->
  <path d="M25.6 6.4c1.51-0.48 3.52-0.8 5.12-0.8 1.6 0 3.61.32 5.12.8 1.51.48 2.56 1.28 3.2 2.4.64 1.12.64 2.4 0 3.52-.64 1.12-1.69 1.92-3.2 2.4-1.51.48-3.52.8-5.12.8-1.6 0-3.61-.32-5.12-.8-1.51-.48-2.56-1.28-3.2-2.4-.64-1.12-.64-2.4 0-3.52.64-1.12 1.69-1.92 3.2-2.4z" fill="#F9B338"/>

  <!-- Blue paddle -->
  <path d="M16 19.2c-1.6 0-3.2.32-4.8.8-1.6.48-2.88 1.28-3.84 2.4-.96 1.12-.96 2.4 0 3.52.96 1.12 2.24 1.92 3.84 2.4 1.6.48 3.2.8 4.8.8 1.6 0 3.2-.32 4.8-.8 1.6-.48 2.88-1.28 3.84-2.4.96-1.12.96-2.4 0-3.52-.96-1.12-2.24-1.92-3.84-2.4-1.6-.48-3.2-.8-4.8-.8z" fill="#1671B7"/>

  <!-- White circle -->
  <circle cx="16" cy="16" r="8" fill="#FEFEFE"/>
</svg>
